<svg xmlns="http://www.w3.org/2000/svg" viewBox="0 0 100 100">
  <defs>
    <linearGradient id="grad1" x1="0%" y1="0%" x2="0%" y2="100%">
      <stop offset="0%" style="stop-color:#4CAF50;stop-opacity:1" />
      <stop offset="100%" style="stop-color:#2E7D32;stop-opacity:1" />
    </linearGradient>
  </defs>
  
  <!-- Background circle -->
  <circle cx="50" cy="50" r="48" fill="url(#grad1)"/>
  
  <!-- Wheat/grain stems -->
  <g fill="white">
    <!-- Left stem -->
    <rect x="25" y="45" width="3" height="25" rx="1.5"/>
    <ellipse cx="26.5" cy="42" rx="4" ry="6"/>
    <ellipse cx="26.5" cy="38" rx="4" ry="5"/>
    <ellipse cx="26.5" cy="34" rx="3.5" ry="4"/>
    
    <!-- Middle stem -->
    <rect x="40" y="40" width="3" height="30" rx="1.5"/>
    <ellipse cx="41.5" cy="37" rx="5" ry="7"/>
    <ellipse cx="41.5" cy="32" rx="5" ry="6"/>
    <ellipse cx="41.5" cy="27" rx="4" ry="5"/>
    
    <!-- Right stem -->
    <rect x="55" y="45" width="3" height="25" rx="1.5"/>
    <ellipse cx="56.5" cy="42" rx="4" ry="6"/>
    <ellipse cx="56.5" cy="38" rx="4" ry="5"/>
    <ellipse cx="56.5" cy="34" rx="3.5" ry="4"/>
    
    <!-- Person icon (worker) -->
    <circle cx="70" cy="55" r="6"/>
    <path d="M70 62 L70 75 M65 68 L75 68 M66 75 L66 80 M74 75 L74 80" stroke="white" stroke-width="2.5" stroke-linecap="round" fill="none"/>
  </g>
  
  <!-- Accent lines -->
  <path d="M15 75 Q50 72 85 75" stroke="white" stroke-width="2" fill="none" opacity="0.5"/>
</svg>
